<svg width="229" height="38" viewBox="0 0 229 38" fill="none" xmlns="http://www.w3.org/2000/svg">
<path d="M20.1832 12.0349L27.5313 0.473815H22.2827L17.6066 8.24439L20.1832 12.0349ZM0 33.5461H5.58259L14.3143 20.1372L23.1892 33.5461H28.581L6.34602 0.473815H1.04972L11.4992 16.394V16.6783L0 33.5461Z" fill="white"/>
<path d="M48.5189 28.7606C41.982 28.5237 39.1192 22.8853 39.1192 17.01C39.1192 9.66584 43.4612 4.78553 50.9046 4.78553C58.3004 4.78553 62.9287 9.52369 62.9287 17.01C62.9287 20.8479 61.6881 24.7806 58.3004 27.1022L57.6324 27.5761L55.0558 22.9327H50.4752L58.3958 38H63.4535L60.0181 31.8878L60.6384 31.4613C65.7438 28.3815 68.0341 23.0274 68.0341 17.01C68.0341 6.30174 61.3541 0 50.9046 0C40.7414 0 33.9183 6.6808 33.9183 17.01C33.9183 27.0075 41.1709 33.5461 50.6661 33.9726L48.5189 28.7606Z" fill="black"/>
<path d="M92.8236 33.5461H106.136C112.864 33.5461 118.78 31.9825 118.78 24.6384C118.78 19.7581 113.961 17.389 109.285 16.5362L109.237 16.3466C113.293 15.2569 115.774 12.6509 115.774 8.57606C115.774 1.99003 111.051 0.473815 104.8 0.473815H92.8236V33.5461ZM97.9768 14.8304V4.21696H104.084C107.09 4.21696 111.003 4.78553 111.003 9.33416C111.003 13.8828 107.043 14.8304 103.846 14.8304H97.9768ZM97.9768 29.7556V18.384H104.466C107.663 18.384 113.293 19.2369 113.293 24.3067C113.293 29.3292 108.426 29.7556 104.561 29.7556H97.9768Z" fill="white"/>
<path d="M122.871 33.5461H128.454L130.553 27.3865H146.586L148.78 33.5461H154.745L141.957 0.473815H134.609L122.871 33.5461ZM132.033 23.1696L138.14 5.30673H138.426L145.059 23.1696H132.033Z" fill="white"/>
<path d="M161.711 33.5461H166.626L166.769 8.48129L184.423 33.5461H189.72V0.473815H184.901L184.757 25.8229L167.103 0.473815H161.711V33.5461Z" fill="white"/>
<path d="M199.417 33.5461H204.57V24.2594L210.344 18.2419L222.272 33.5461H229L213.97 14.783L228.093 0.473815H221.509L204.57 18.384V0.473815H199.417V33.5461Z" fill="white"/>
</svg>
