<svg width="256" height="39" viewBox="0 0 256 39" fill="none" xmlns="http://www.w3.org/2000/svg">
<path d="M30.2246 36.8793H23.3932L15.3623 23.7931L7.33145 36.8793H0.5L11.9727 18.2586L1.17793 0.672414H7.95723L15.3623 12.7241L22.7674 0.672414H29.5989L18.8041 18.2586L30.2246 36.8793Z" fill="white"/>
<path d="M68.8382 18.7759C68.8382 23.6034 67.2389 27.7759 64.0405 31.2931L67.8995 35.2241L63.6754 39L59.66 34.9138C56.6006 36.6724 53.3501 37.5517 49.9083 37.5517C44.6586 37.5517 40.1912 35.7414 36.5061 32.1207C32.8209 28.4655 30.9783 24.0172 30.9783 18.7759C30.9783 13.5345 32.8209 9.10345 36.5061 5.48276C40.1912 1.82759 44.6586 0 49.9083 0C55.1579 0 59.6253 1.82759 63.3104 5.48276C66.9956 9.10345 68.8382 13.5345 68.8382 18.7759ZM49.9083 31.7586C51.8551 31.7586 53.6803 31.3621 55.3838 30.569L48.7088 23.7931L52.9329 20.0172L59.9208 27.1034C61.8676 24.7241 62.8411 21.9483 62.8411 18.7759C62.8411 15.0862 61.5895 12 59.0864 9.51724C56.5833 7.03448 53.5239 5.79311 49.9083 5.79311C46.2926 5.79311 43.2332 7.03448 40.7301 9.51724C38.227 12 36.9754 15.0862 36.9754 18.7759C36.9754 22.4655 38.227 25.5517 40.7301 28.0345C43.2332 30.5172 46.2926 31.7586 49.9083 31.7586Z" fill="white"/>
<path d="M87.6002 0.672414H93.5973V36.8793H87.6002V0.672414Z" fill="white"/>
<path d="M122.794 0.672414H128.791V36.8793H124.098L106.889 12.3103V36.8793H100.892V0.672414H105.585L122.794 25.2414V0.672414Z" fill="white"/>
<path d="M181.19 31.1897H197.356V36.8793H175.193V0.672414H197.096V6.36207H181.19V15.7759H195.792V21.4138H181.19V31.1897Z" fill="white"/>
<path d="M214.997 37.5517C211.486 37.5517 208.496 36.7586 206.027 35.1724C203.594 33.5862 201.89 31.4138 200.917 28.6552L206.08 25.6552C207.54 29.7241 210.564 31.7586 215.153 31.7586C217.413 31.7586 219.099 31.3276 220.212 30.4655C221.359 29.569 221.933 28.4138 221.933 27C221.933 25.5172 221.324 24.3966 220.107 23.6379C218.891 22.8448 216.735 21.9828 213.641 21.0517C211.903 20.5345 210.495 20.0517 209.417 19.6034C208.339 19.1552 207.192 18.5345 205.975 17.7414C204.793 16.9138 203.907 15.8966 203.316 14.6897C202.725 13.4828 202.429 12.069 202.429 10.4483C202.429 7.24138 203.576 4.7069 205.871 2.84483C208.165 0.948276 210.929 0 214.163 0C217.083 0 219.638 0.706897 221.828 2.12069C224.019 3.53448 225.705 5.48276 226.887 7.96552L221.828 10.8621C220.299 7.48276 217.743 5.79311 214.163 5.79311C212.424 5.79311 211.034 6.2069 209.991 7.03448C208.948 7.82759 208.426 8.91379 208.426 10.2931C208.426 11.6379 208.948 12.7069 209.991 13.5C211.068 14.2586 212.998 15.069 215.779 15.931C217.17 16.3793 218.178 16.7241 218.804 16.9655C219.464 17.1724 220.368 17.5172 221.515 18C222.697 18.4828 223.584 18.9655 224.175 19.4483C224.766 19.931 225.392 20.5345 226.052 21.2586C226.748 21.9828 227.234 22.8103 227.513 23.7414C227.791 24.6724 227.93 25.7241 227.93 26.8966C227.93 30.1724 226.73 32.7759 224.331 34.7069C221.967 36.6034 218.856 37.5517 214.997 37.5517Z" fill="white"/>
<path d="M255.5 0.672414V6.36207H245.227V36.8793H239.23V6.36207H228.904V0.672414H255.5Z" fill="white"/>
<path d="M150.657 37.589L137.985 1.38213H144.555L154.255 30.3994L156.646 37.589H150.657Z" fill="white"/>
<path d="M159.109 22.9338L150.056 1.38213H165.749L159.109 22.9338Z" fill="black"/>
<path d="M63.7453 38.7977L48.656 23.5319L52.881 19.94L67.9703 34.9065L63.7453 38.7977Z" fill="black"/>
</svg>
