<svg width="176" height="49" viewBox="0 0 176 49" fill="none" xmlns="http://www.w3.org/2000/svg">
<path d="M21.2616 34H16.5855L11.0883 24.969L5.59116 34H0.915014L8.76809 21.1495L1.37906 9.01296H6.01951L11.0883 17.3301L16.1571 9.01296H20.8333L13.4442 21.1495L21.2616 34ZM47.6927 21.5065C47.6927 24.8381 46.598 27.7175 44.4086 30.1449L47.0501 32.8577L44.1588 35.4635L41.4102 32.6436C39.316 33.8572 37.091 34.464 34.7351 34.464C31.1417 34.464 28.0838 33.2147 25.5613 30.716C23.0388 28.1935 21.7775 25.1237 21.7775 21.5065C21.7775 17.8893 23.0388 14.8314 25.5613 12.3327C28.0838 9.81016 31.1417 8.54891 34.7351 8.54891C38.3285 8.54891 41.3864 9.81016 43.9089 12.3327C46.4314 14.8314 47.6927 17.8893 47.6927 21.5065ZM34.7351 30.4661C36.0677 30.4661 37.3171 30.1925 38.4831 29.6451L33.9141 24.969L36.8054 22.3632L41.5887 27.2535C42.9213 25.6115 43.5876 23.6958 43.5876 21.5065C43.5876 18.9602 42.7309 16.8303 41.0175 15.1169C39.3041 13.4035 37.21 12.5468 34.7351 12.5468C32.2602 12.5468 30.166 13.4035 28.4526 15.1169C26.7392 16.8303 25.8825 18.9602 25.8825 21.5065C25.8825 24.0528 26.7392 26.1826 28.4526 27.896C30.166 29.6094 32.2602 30.4661 34.7351 30.4661ZM60.5353 9.01296H64.6403V34H60.5353V9.01296ZM84.6258 9.01296H88.7308V34H85.5182L73.7386 17.0445V34H69.6336V9.01296H72.8462L84.6258 25.9685V9.01296ZM124.598 30.0735H135.664V34H120.493V9.01296H135.485V12.9395H124.598V19.4361H134.593V23.327H124.598V30.0735ZM147.739 34.464C145.335 34.464 143.289 33.9167 141.599 32.822C139.933 31.7274 138.767 30.2281 138.101 28.3244L141.635 26.254C142.634 29.0621 144.705 30.4661 147.846 30.4661C149.393 30.4661 150.547 30.1687 151.308 29.5737C152.094 28.955 152.486 28.1578 152.486 27.1821C152.486 26.1588 152.07 25.3854 151.237 24.8619C150.404 24.3145 148.929 23.7196 146.811 23.0771C145.621 22.7201 144.657 22.387 143.919 22.0776C143.182 21.7682 142.396 21.3399 141.563 20.7926C140.754 20.2214 140.147 19.5194 139.743 18.6865C139.338 17.8536 139.136 16.8779 139.136 15.7595C139.136 13.5463 139.921 11.7972 141.492 10.5122C143.063 9.20333 144.954 8.54891 147.168 8.54891C149.167 8.54891 150.916 9.03675 152.415 10.0124C153.914 10.9881 155.068 12.3327 155.877 14.0461L152.415 16.045C151.368 13.7129 149.619 12.5468 147.168 12.5468C145.978 12.5468 145.026 12.8324 144.312 13.4035C143.598 13.9509 143.241 14.7005 143.241 15.6524C143.241 16.5805 143.598 17.3182 144.312 17.8655C145.05 18.389 146.37 18.9483 148.274 19.5432C149.226 19.8526 149.916 20.0905 150.344 20.2571C150.797 20.3999 151.415 20.6379 152.201 20.971C153.01 21.3042 153.617 21.6374 154.021 21.9705C154.426 22.3037 154.854 22.7201 155.306 23.2199C155.782 23.7196 156.115 24.2907 156.306 24.9333C156.496 25.5758 156.591 26.3016 156.591 27.1107C156.591 29.3714 155.77 31.1681 154.128 32.5008C152.51 33.8096 150.38 34.464 147.739 34.464ZM175.463 9.01296V12.9395H168.431V34H164.326V12.9395H157.258V9.01296H175.463Z" fill="#7E7E7E"/>
<path d="M103.698 34.4897L95.0235 9.50269H99.5212L106.161 29.528L107.797 34.4897H103.698Z" fill="#7E7E7E"/>
<path d="M109.484 24.3759L103.286 9.50269H114.028L109.484 24.3759Z" fill="black" stroke="black" stroke-width="0.413146"/>
<path d="M44.2066 35.3239L33.8779 24.7887L36.7699 22.3098L47.0986 32.6385L44.2066 35.3239Z" fill="black" stroke="black" stroke-width="0.413146"/>
</svg>
