<svg width="229" height="39" viewBox="0 0 229 39" fill="none" xmlns="http://www.w3.org/2000/svg">
<path d="M20.1832 12.5349L27.5313 0.973815H22.2827L17.6066 8.74439L20.1832 12.5349ZM0 34.0461H5.58259L14.3143 20.6372L23.1892 34.0461H28.581L6.34602 0.973815H1.04972L11.4992 16.894V17.1783L0 34.0461Z" fill="#989898"/>
<path d="M48.5189 29.2606C41.982 29.0237 39.1192 23.3853 39.1192 17.51C39.1192 10.1658 43.4612 5.28553 50.9046 5.28553C58.3004 5.28553 62.9287 10.0237 62.9287 17.51C62.9287 21.3479 61.6881 25.2806 58.3004 27.6022L57.6324 28.0761L55.0558 23.4327H50.4752L58.3958 38.5H63.4535L60.0181 32.3878L60.6384 31.9613C65.7438 28.8815 68.0341 23.5274 68.0341 17.51C68.0341 6.80174 61.3541 0.5 50.9046 0.5C40.7414 0.5 33.9183 7.1808 33.9183 17.51C33.9183 27.5075 41.1709 34.0461 50.6661 34.4726L48.5189 29.2606Z" fill="black"/>
<path d="M92.8236 34.0461H106.136C112.864 34.0461 118.78 32.4825 118.78 25.1384C118.78 20.2581 113.961 17.889 109.285 17.0362L109.237 16.8466C113.293 15.7569 115.774 13.1509 115.774 9.07606C115.774 2.49003 111.051 0.973815 104.8 0.973815H92.8236V34.0461ZM97.9768 15.3304V4.71696H104.084C107.09 4.71696 111.003 5.28553 111.003 9.83416C111.003 14.3828 107.043 15.3304 103.846 15.3304H97.9768ZM97.9768 30.2556V18.884H104.466C107.663 18.884 113.293 19.7369 113.293 24.8067C113.293 29.8292 108.426 30.2556 104.561 30.2556H97.9768Z" fill="#989898"/>
<path d="M122.871 34.0461H128.454L130.553 27.8865H146.586L148.78 34.0461H154.745L141.957 0.973815H134.609L122.871 34.0461ZM132.033 23.6696L138.14 5.80673H138.426L145.059 23.6696H132.033Z" fill="#989898"/>
<path d="M161.711 34.0461H166.626L166.769 8.98129L184.423 34.0461H189.72V0.973815H184.901L184.757 26.3229L167.103 0.973815H161.711V34.0461Z" fill="#989898"/>
<path d="M199.417 34.0461H204.57V24.7594L210.344 18.7419L222.272 34.0461H229L213.97 15.283L228.093 0.973815H221.509L204.57 18.884V0.973815H199.417V34.0461Z" fill="#989898"/>
</svg>
