<svg width="505" height="374" viewBox="0 0 505 374" fill="none" xmlns="http://www.w3.org/2000/svg">
<path d="M434.969 4.46983L15.363 126.554C6.87823 129.022 1.49801 138.029 3.3459 146.67L48.5734 358.164C50.4213 366.806 58.7975 371.809 67.2822 369.341L486.888 247.257C495.373 244.788 500.753 235.782 498.905 227.141L453.678 15.6463C451.83 7.00507 443.454 2.00121 434.969 4.46983Z" fill="#D9D9D9"/>
<path d="M464.654 57.9515L35.2008 115.15C26.4416 116.317 20.0387 124.392 20.8997 133.187L42.1175 349.928C42.9784 358.723 50.7771 364.907 59.5363 363.74L488.989 306.541C497.748 305.374 504.151 297.299 503.29 288.505L482.072 71.763C481.211 62.9685 473.413 56.7849 464.654 57.9515Z" fill="#F6F5F1"/>
<path d="M462.15 112.258H43.9375C35.1009 112.258 27.9375 119.422 27.9375 128.258V338.951C27.9375 347.788 35.1009 354.951 43.9375 354.951H462.15C470.986 354.951 478.15 347.788 478.15 338.951V128.258C478.15 119.422 470.986 112.258 462.15 112.258Z" fill="#585858"/>
<path d="M59.0972 279.892V287.398H58.4361V280.564H56.9482V279.892H59.0972Z" fill="#585858"/>
<path d="M61.2461 283.658C61.2461 281.294 62.3758 279.892 63.9323 279.892C65.4888 279.892 66.6186 281.294 66.6186 283.658C66.6186 286.023 65.4888 287.398 63.9323 287.398C62.3758 287.398 61.2461 285.995 61.2461 283.658ZM65.9155 283.658C65.9155 281.679 65.1122 280.606 63.9323 280.606C62.7524 280.606 61.9491 281.679 61.9491 283.658C61.9491 285.638 62.7524 286.71 63.9323 286.71C65.1122 286.71 65.9155 285.61 65.9155 283.658Z" fill="#585858"/>
<path d="M61.2462 239.168V239.86H57.1237V239.306L59.5796 236.289C60.2375 235.459 60.369 234.961 60.369 234.462C60.369 233.964 59.8866 233.078 58.9875 233.078C58.6883 233.054 58.3887 233.116 58.1113 233.26C57.8339 233.404 57.5861 233.626 57.3868 233.909L56.9482 233.438C57.2106 233.075 57.5336 232.79 57.8938 232.603C58.2541 232.416 58.6426 232.333 59.0314 232.359C60.2375 232.359 60.9831 233.134 60.9831 234.379C60.9668 234.832 60.8719 235.275 60.7052 235.677C60.5385 236.079 60.304 236.43 60.0182 236.704L58.0227 239.168H61.2462Z" fill="#585858"/>
<path d="M63.3945 236.121C63.3945 233.756 64.5243 232.354 66.0808 232.354C67.6373 232.354 68.767 233.756 68.767 236.121C68.767 238.485 67.6373 239.86 66.0808 239.86C64.5243 239.86 63.3945 238.54 63.3945 236.121ZM68.064 236.121C68.064 234.141 67.2356 233.069 66.0808 233.069C64.9259 233.069 64.0975 234.141 64.0975 236.121C64.0975 238.1 64.9008 239.173 66.0808 239.173C67.2607 239.173 68.1394 238.073 68.1394 236.121H68.064Z" fill="#585858"/>
<path d="M62.3207 190.121C62.3207 191.371 61.4342 192.316 59.6345 192.316C58.6542 192.376 57.6901 192.037 56.9482 191.371L57.2975 190.76C57.9072 191.331 58.7047 191.639 59.5269 191.621C60.7357 191.621 61.3804 191.038 61.3804 190.121C61.3804 189.205 60.7895 188.649 59.4464 188.649H58.936V188.066L60.9238 185.483H57.2437V184.816H61.8639V185.344L59.8493 188.122C61.5416 188.149 62.3207 188.983 62.3207 190.121Z" fill="#585858"/>
<path d="M63.3945 188.583C63.3945 186.219 64.5243 184.816 66.0808 184.816C67.6373 184.816 68.767 186.219 68.767 188.583C68.767 190.948 67.6373 192.322 66.0808 192.322C64.5243 192.322 63.3945 190.92 63.3945 188.583ZM68.064 188.583C68.064 186.604 67.2356 185.531 66.0808 185.531C64.9259 185.531 64.0975 186.604 64.0975 188.583C64.0975 190.563 64.9008 191.635 66.0808 191.635C67.2607 191.635 68.1394 190.535 68.1394 188.583H68.064Z" fill="#585858"/>
<path d="M88.1084 308.651C88.1084 306.314 89.2381 304.912 90.7946 304.912C92.3511 304.912 93.4809 306.314 93.4809 308.651C93.4809 310.988 92.3511 312.418 90.7946 312.418C89.2381 312.418 88.1084 311.015 88.1084 308.651ZM92.7779 308.651C92.7779 306.699 91.9746 305.599 90.7946 305.599C89.6147 305.599 88.8113 306.699 88.8113 308.651C88.8113 310.603 89.6147 311.703 90.7946 311.703C91.9746 311.703 92.7779 310.63 92.7779 308.651Z" fill="#585858"/>
<path d="M137.536 304.912V312.418H136.858V305.612H135.387V304.912H137.536Z" fill="#585858"/>
<path d="M188.036 311.752V312.418H183.914V311.89L186.37 308.866C187.028 308.033 187.159 307.534 187.159 307.007C187.159 306.479 186.677 305.619 185.778 305.619C185.478 305.595 185.179 305.657 184.901 305.802C184.624 305.946 184.376 306.168 184.177 306.452L183.738 305.98C184.016 305.605 184.359 305.315 184.738 305.132C185.118 304.95 185.526 304.879 185.931 304.926C187.115 304.926 187.883 305.675 187.883 306.923C187.869 307.378 187.776 307.824 187.609 308.227C187.442 308.63 187.206 308.981 186.918 309.254L184.922 311.752H188.036Z" fill="#585858"/>
<path d="M237.462 310.199C237.462 311.444 236.603 312.413 234.776 312.413C233.792 312.462 232.829 312.115 232.09 311.444L232.466 310.835C233.07 311.414 233.871 311.723 234.695 311.693C235.877 311.693 236.549 311.14 236.549 310.199C236.549 309.257 235.931 308.731 234.588 308.731H234.078V308.178L236.092 305.604H232.412V304.912H237.033V305.465L234.991 308.095C236.63 308.178 237.462 309.008 237.462 310.199Z" fill="#585858"/>
<path d="M286.89 310.472H285.634V312.418H284.983V310.472H281.518V309.86L284.82 304.912H285.541L282.308 309.86H285.006V308.136H285.634V309.86H286.89V310.472Z" fill="#585858"/>
<path d="M334.167 310.143C334.167 311.416 333.335 312.412 331.481 312.412C330.497 312.465 329.533 312.117 328.795 311.444L329.144 310.835C329.751 311.408 330.551 311.716 331.374 311.693C332.583 311.693 333.254 311.084 333.254 310.171C333.254 309.257 332.663 308.648 330.836 308.648H329.305L329.681 304.912H333.603V305.604H330.326L330.084 307.956H330.998C333.362 307.956 334.167 308.842 334.167 310.143Z" fill="#585858"/>
<path d="M383.593 310.131C383.587 310.45 383.518 310.764 383.389 311.054C383.261 311.344 383.077 311.603 382.847 311.817C382.618 312.03 382.349 312.193 382.056 312.295C381.764 312.397 381.454 312.436 381.146 312.41C379.258 312.41 378.221 311.037 378.221 308.704C378.221 306.371 379.55 304.916 381.492 304.916C382.074 304.886 382.653 305.019 383.168 305.3L382.875 305.931C382.463 305.663 381.978 305.538 381.492 305.574C379.949 305.574 378.965 306.59 378.965 308.594C378.965 308.759 378.965 308.978 378.965 309.198C379.171 308.792 379.487 308.456 379.874 308.232C380.261 308.008 380.703 307.904 381.146 307.935C381.451 307.892 381.76 307.917 382.054 308.007C382.349 308.098 382.621 308.252 382.852 308.46C383.084 308.668 383.27 308.925 383.398 309.213C383.526 309.501 383.592 309.814 383.593 310.131ZM382.875 310.131C382.875 309.17 382.184 308.539 381.067 308.539C380.841 308.512 380.613 308.534 380.397 308.602C380.18 308.671 379.98 308.785 379.807 308.936C379.635 309.088 379.495 309.275 379.396 309.486C379.297 309.696 379.241 309.925 379.231 310.159C379.231 310.955 379.896 311.723 381.12 311.723C381.336 311.75 381.556 311.73 381.765 311.664C381.974 311.598 382.167 311.488 382.332 311.341C382.497 311.194 382.631 311.013 382.724 310.809C382.818 310.605 382.869 310.384 382.875 310.159V310.131Z" fill="#585858"/>
<path d="M430.872 304.912V305.472L428.404 312.418H427.786L430.233 305.612H427.191V307.012H426.574V304.912H430.872Z" fill="#585858"/>
<path d="M431.946 284.271C431.946 284.607 356.008 284.896 262.188 284.896C168.368 284.896 92.4062 284.607 92.4062 284.271C92.4062 283.934 168.344 283.645 262.188 283.645C356.033 283.645 431.946 283.91 431.946 284.271Z" fill="#585858"/>
<path d="M431.946 235.481C431.946 235.818 356.008 236.107 262.188 236.107C168.368 236.107 92.4062 235.818 92.4062 235.481C92.4062 235.145 168.344 234.856 262.188 234.856C356.033 234.856 431.946 235.097 431.946 235.481Z" fill="#585858"/>
<path d="M431.946 187.944C431.946 188.305 356.008 188.569 262.188 188.569C168.368 188.569 92.4062 188.305 92.4062 187.944C92.4062 187.583 168.344 187.318 262.188 187.318C356.033 187.318 431.946 187.607 431.946 187.944Z" fill="#585858"/>
<path d="M92.4064 283.645C92.4064 284.139 92.2803 284.623 92.0441 285.035C91.808 285.446 91.4724 285.767 91.0797 285.956C90.687 286.145 90.2549 286.195 89.8381 286.098C89.4212 286.002 89.0383 285.764 88.7377 285.414C88.4372 285.064 88.2326 284.618 88.1497 284.133C88.0668 283.647 88.1092 283.144 88.2719 282.687C88.4345 282.23 88.71 281.839 89.0634 281.564C89.4168 281.289 89.8323 281.143 90.2573 281.143C90.8273 281.143 91.3739 281.406 91.7769 281.875C92.1799 282.345 92.4064 282.981 92.4064 283.645Z" fill="#989898"/>
<path d="M140.759 283.645C140.759 284.139 140.633 284.623 140.397 285.035C140.161 285.446 139.825 285.767 139.432 285.956C139.04 286.145 138.608 286.195 138.191 286.098C137.774 286.002 137.391 285.764 137.09 285.414C136.79 285.064 136.585 284.618 136.502 284.133C136.419 283.647 136.462 283.144 136.625 282.687C136.787 282.23 137.063 281.839 137.416 281.564C137.769 281.289 138.185 281.143 138.61 281.143C139.18 281.143 139.726 281.406 140.129 281.875C140.532 282.345 140.759 282.981 140.759 283.645Z" fill="#989898"/>
<path d="M190.185 283.645C190.185 284.139 190.059 284.623 189.823 285.035C189.586 285.446 189.251 285.767 188.858 285.956C188.465 286.145 188.033 286.195 187.616 286.098C187.2 286.002 186.817 285.764 186.516 285.414C186.216 285.064 186.011 284.618 185.928 284.133C185.845 283.647 185.888 283.144 186.05 282.687C186.213 282.23 186.488 281.839 186.842 281.564C187.195 281.289 187.611 281.143 188.036 281.143C188.606 281.143 189.152 281.406 189.555 281.875C189.958 282.345 190.185 282.981 190.185 283.645Z" fill="#989898"/>
<path d="M238.537 283.645C238.537 284.139 238.411 284.623 238.175 285.035C237.939 285.446 237.603 285.767 237.211 285.956C236.818 286.145 236.386 286.195 235.969 286.098C235.552 286.002 235.169 285.764 234.869 285.414C234.568 285.064 234.363 284.618 234.281 284.133C234.198 283.647 234.24 283.144 234.403 282.687C234.566 282.23 234.841 281.839 235.194 281.564C235.548 281.289 235.963 281.143 236.388 281.143C236.958 281.143 237.505 281.406 237.908 281.875C238.311 282.345 238.537 282.981 238.537 283.645Z" fill="#989898"/>
<path d="M287.964 283.645C287.964 284.139 287.838 284.623 287.602 285.035C287.366 285.446 287.03 285.767 286.637 285.956C286.245 286.145 285.813 286.195 285.396 286.098C284.979 286.002 284.596 285.764 284.295 285.414C283.995 285.064 283.79 284.618 283.707 284.133C283.624 283.647 283.667 283.144 283.83 282.687C283.992 282.23 284.268 281.839 284.621 281.564C284.975 281.289 285.39 281.143 285.815 281.143C286.385 281.143 286.932 281.406 287.335 281.875C287.738 282.345 287.964 282.981 287.964 283.645Z" fill="#989898"/>
<path d="M384.668 283.645C384.668 284.139 384.542 284.623 384.306 285.035C384.07 285.446 383.734 285.767 383.341 285.956C382.949 286.145 382.517 286.195 382.1 286.098C381.683 286.002 381.3 285.764 380.999 285.414C380.699 285.064 380.494 284.618 380.411 284.133C380.329 283.647 380.371 283.144 380.534 282.687C380.696 282.23 380.972 281.839 381.325 281.564C381.679 281.289 382.094 281.143 382.519 281.143C383.089 281.143 383.636 281.406 384.039 281.875C384.442 282.345 384.668 282.981 384.668 283.645Z" fill="#989898"/>
<path d="M336.316 283.645C336.316 284.139 336.189 284.623 335.953 285.035C335.717 285.446 335.382 285.767 334.989 285.956C334.596 286.145 334.164 286.195 333.747 286.098C333.33 286.002 332.948 285.764 332.647 285.414C332.346 285.064 332.142 284.618 332.059 284.133C331.976 283.647 332.019 283.144 332.181 282.687C332.344 282.23 332.619 281.839 332.973 281.564C333.326 281.289 333.742 281.143 334.167 281.143C334.737 281.143 335.283 281.406 335.686 281.875C336.089 282.345 336.316 282.981 336.316 283.645Z" fill="#989898"/>
<path d="M434.095 283.645C434.095 284.139 433.969 284.623 433.733 285.035C433.496 285.446 433.161 285.767 432.768 285.956C432.375 286.145 431.943 286.195 431.527 286.098C431.11 286.002 430.727 285.764 430.426 285.414C430.126 285.064 429.921 284.618 429.838 284.133C429.755 283.647 429.798 283.144 429.96 282.687C430.123 282.23 430.399 281.839 430.752 281.564C431.105 281.289 431.521 281.143 431.946 281.143C432.516 281.143 433.062 281.406 433.465 281.875C433.868 282.345 434.095 282.981 434.095 283.645Z" fill="#989898"/>
<path d="M114.971 284.271C114.971 284.643 114.876 285.007 114.698 285.317C114.519 285.626 114.266 285.866 113.97 286.007C113.674 286.148 113.348 286.184 113.035 286.109C112.722 286.034 112.435 285.852 112.21 285.586C111.986 285.32 111.835 284.983 111.776 284.617C111.717 284.251 111.753 283.873 111.879 283.53C112.005 283.188 112.216 282.897 112.484 282.695C112.753 282.493 113.067 282.388 113.387 282.394C113.597 282.394 113.806 282.443 114 282.538C114.194 282.632 114.369 282.771 114.517 282.946C114.664 283.12 114.781 283.328 114.859 283.555C114.937 283.783 114.975 284.026 114.971 284.271Z" fill="#F6F5F1"/>
<path d="M163.323 284.286C163.323 284.776 163.165 285.245 162.884 285.591C162.602 285.937 162.221 286.131 161.823 286.131C161.608 286.166 161.389 286.144 161.182 286.066C160.974 285.988 160.782 285.857 160.619 285.681C160.456 285.505 160.325 285.288 160.235 285.045C160.146 284.801 160.1 284.538 160.1 284.271C160.1 284.003 160.146 283.74 160.235 283.496C160.325 283.253 160.456 283.036 160.619 282.86C160.782 282.684 160.974 282.553 161.182 282.475C161.389 282.397 161.608 282.375 161.823 282.41C162.022 282.41 162.22 282.459 162.403 282.553C162.587 282.648 162.753 282.787 162.893 282.961C163.032 283.136 163.142 283.343 163.216 283.571C163.29 283.798 163.326 284.042 163.323 284.286Z" fill="#F6F5F1"/>
<path d="M211.137 286.147C212.027 286.147 212.749 285.307 212.749 284.271C212.749 283.234 212.027 282.394 211.137 282.394C210.247 282.394 209.525 283.234 209.525 284.271C209.525 285.307 210.247 286.147 211.137 286.147Z" fill="#F6F5F1"/>
<path d="M260.565 286.147C261.455 286.147 262.177 285.307 262.177 284.271C262.177 283.234 261.455 282.394 260.565 282.394C259.675 282.394 258.953 283.234 258.953 284.271C258.953 285.307 259.675 286.147 260.565 286.147Z" fill="#F6F5F1"/>
<path d="M308.916 286.147C309.807 286.147 310.528 285.307 310.528 284.271C310.528 283.234 309.807 282.394 308.916 282.394C308.026 282.394 307.305 283.234 307.305 284.271C307.305 285.307 308.026 286.147 308.916 286.147Z" fill="#F6F5F1"/>
<path d="M359.954 284.287C359.946 284.783 359.761 285.256 359.439 285.604C359.116 285.952 358.682 286.147 358.23 286.147C357.815 286.087 357.435 285.864 357.159 285.519C356.883 285.174 356.73 284.73 356.73 284.271C356.73 283.811 356.883 283.368 357.159 283.022C357.435 282.677 357.815 282.454 358.23 282.394C358.687 282.394 359.126 282.593 359.449 282.948C359.772 283.303 359.954 283.785 359.954 284.287Z" fill="#F6F5F1"/>
<path d="M408.307 284.271C408.307 284.643 408.212 285.007 408.034 285.317C407.855 285.626 407.602 285.866 407.306 286.007C407.01 286.148 406.684 286.184 406.371 286.109C406.058 286.034 405.771 285.852 405.546 285.586C405.322 285.32 405.171 284.983 405.112 284.617C405.053 284.251 405.089 283.873 405.215 283.53C405.341 283.188 405.552 282.897 405.82 282.695C406.089 282.493 406.403 282.388 406.723 282.394C406.933 282.394 407.142 282.443 407.336 282.538C407.53 282.632 407.705 282.771 407.853 282.946C408 283.12 408.117 283.328 408.195 283.555C408.273 283.783 408.311 284.026 408.307 284.271Z" fill="#F6F5F1"/>
<path d="M143.981 262.35C143.986 263.589 143.675 264.802 143.086 265.835C142.498 266.868 141.659 267.674 140.676 268.151C139.693 268.628 138.611 268.755 137.567 268.514C136.522 268.274 135.563 267.677 134.81 266.801C134.057 265.924 133.545 264.807 133.338 263.591C133.132 262.375 133.24 261.115 133.65 259.971C134.06 258.827 134.752 257.85 135.639 257.165C136.527 256.48 137.569 256.117 138.633 256.123C140.05 256.131 141.406 256.789 142.408 257.955C143.409 259.121 143.975 260.7 143.981 262.35Z" fill="#989898"/>
<path d="M186.962 233.576C186.967 234.815 186.656 236.027 186.068 237.059C185.481 238.092 184.643 238.898 183.662 239.376C182.681 239.853 181.6 239.981 180.556 239.743C179.512 239.505 178.553 238.912 177.799 238.038C177.045 237.164 176.531 236.05 176.322 234.836C176.113 233.622 176.217 232.363 176.623 231.218C177.029 230.073 177.718 229.095 178.602 228.406C179.486 227.718 180.526 227.35 181.589 227.35C183.01 227.35 184.373 228.005 185.379 229.172C186.386 230.339 186.955 231.923 186.962 233.576Z" fill="#989898"/>
<path d="M239.612 236.079C239.617 237.317 239.306 238.529 238.719 239.561C238.131 240.594 237.294 241.4 236.313 241.878C235.331 242.355 234.25 242.483 233.207 242.245C232.163 242.007 231.203 241.414 230.449 240.54C229.696 239.666 229.182 238.552 228.972 237.338C228.763 236.124 228.868 234.865 229.274 233.72C229.68 232.575 230.368 231.597 231.252 230.908C232.136 230.22 233.176 229.852 234.24 229.852C234.944 229.848 235.642 230.007 236.294 230.318C236.945 230.629 237.538 231.087 238.037 231.666C238.536 232.244 238.932 232.932 239.203 233.689C239.473 234.446 239.612 235.258 239.612 236.079Z" fill="#989898"/>
<path d="M291.187 182.314C291.187 183.551 290.872 184.761 290.282 185.789C289.692 186.818 288.852 187.619 287.871 188.093C286.889 188.566 285.809 188.69 284.767 188.449C283.725 188.207 282.767 187.612 282.016 186.737C281.265 185.862 280.753 184.748 280.546 183.534C280.338 182.321 280.445 181.063 280.851 179.92C281.258 178.777 281.946 177.801 282.83 177.113C283.713 176.426 284.752 176.059 285.815 176.059C286.52 176.059 287.219 176.221 287.871 176.535C288.523 176.85 289.115 177.31 289.614 177.891C290.113 178.472 290.508 179.161 290.778 179.92C291.048 180.679 291.187 181.493 291.187 182.314Z" fill="#989898"/>
<path d="M339.54 216.091C339.54 217.328 339.225 218.537 338.634 219.566C338.044 220.595 337.205 221.396 336.223 221.87C335.242 222.343 334.161 222.467 333.119 222.226C332.077 221.984 331.12 221.389 330.368 220.514C329.617 219.639 329.105 218.525 328.898 217.311C328.691 216.098 328.797 214.84 329.204 213.697C329.611 212.554 330.299 211.577 331.183 210.89C332.066 210.203 333.105 209.836 334.167 209.836C334.874 209.832 335.574 209.991 336.227 210.304C336.88 210.617 337.474 211.078 337.974 211.66C338.473 212.241 338.869 212.932 339.137 213.693C339.406 214.453 339.543 215.268 339.54 216.091Z" fill="#989898"/>
<path d="M387.891 226.099C387.891 227.336 387.576 228.546 386.986 229.574C386.396 230.603 385.557 231.405 384.575 231.878C383.593 232.351 382.513 232.475 381.471 232.234C380.429 231.993 379.471 231.397 378.72 230.522C377.969 229.647 377.457 228.533 377.25 227.319C377.042 226.106 377.149 224.848 377.555 223.706C377.962 222.563 378.651 221.586 379.534 220.898C380.418 220.211 381.456 219.844 382.519 219.844C383.942 219.852 385.305 220.513 386.311 221.685C387.317 222.856 387.885 224.443 387.891 226.099Z" fill="#989898"/>
<path d="M434.095 262.802C433.671 262.839 433.244 262.839 432.819 262.802C431.6 262.695 430.387 262.504 429.187 262.231C424.494 261.203 420.107 258.785 416.451 255.211C413.865 252.553 411.748 249.335 410.218 245.737C408.338 241.565 406.111 237.618 403.568 233.952C400.788 229.678 396.912 226.54 392.501 224.991C390.066 224.33 387.525 224.439 385.139 225.305C382.648 226.249 380.345 227.762 378.366 229.757C374.194 233.809 371.127 239.573 367.078 244.795C365.053 247.589 362.544 249.854 359.716 251.444C356.681 253.003 353.283 253.325 350.072 252.357C348.436 251.732 346.933 250.709 345.663 249.356C344.394 248.003 343.387 246.351 342.71 244.51C341.293 240.854 340.231 237.025 339.544 233.096C338.868 229.196 337.89 225.376 336.624 221.681C336.008 219.879 334.917 218.35 333.507 217.315C331.972 216.489 330.289 216.107 328.599 216.202C324.978 216.668 321.388 217.411 317.851 218.428C315.983 218.864 314.087 219.113 312.182 219.17C310.199 219.258 308.224 218.809 306.415 217.857C304.586 216.849 303.007 215.317 301.826 213.406C300.718 211.506 299.781 209.479 299.029 207.356C297.483 203.133 296.452 198.795 295.054 194.486C294.38 192.374 293.508 190.354 292.452 188.465C291.436 186.616 289.966 185.165 288.232 184.299C287.79 184.156 287.348 183.956 286.906 183.842L285.483 183.671C284.583 183.598 283.683 183.815 282.882 184.299C281.234 185.456 279.879 187.1 278.956 189.064C276.999 193.195 275.475 197.582 274.416 202.134C273.262 206.728 272.281 211.408 271.324 216.145C269.753 223.993 268.354 231.811 266.637 239.459C265.797 243.321 264.79 247.13 263.618 250.873C262.536 254.66 260.809 258.154 258.539 261.146C257.247 262.693 255.484 263.585 253.631 263.629C251.891 263.565 250.197 262.964 248.723 261.888C245.934 259.774 243.566 256.992 241.778 253.727C238.363 247.505 235.548 240.863 233.385 233.923C231.455 227.317 228.248 221.314 224.011 216.373C221.893 214.219 219.36 212.69 216.627 211.916C213.893 211.141 211.039 211.143 208.306 211.922C205.699 212.753 203.216 214.042 200.944 215.746C198.645 217.376 196.462 219.217 194.416 221.253C190.457 225.119 186.803 229.388 183.496 234.009C178.531 239.769 173.127 244.994 167.349 249.618C162.216 253.851 156.663 257.348 150.809 260.034C145.69 262.514 140.148 263.588 134.613 263.173C129.996 262.569 125.461 261.294 121.117 259.377C115.083 256.794 109.226 253.684 103.595 250.074C101.657 248.847 100.209 247.849 99.2271 247.221C98.7266 246.882 98.2433 246.511 97.7793 246.108L99.3007 247.05L103.742 249.903C109.409 253.378 115.281 256.382 121.313 258.892C125.617 260.737 130.101 261.954 134.662 262.516C140.088 262.854 145.51 261.751 150.515 259.292C156.29 256.601 161.761 253.104 166.809 248.876C172.515 244.266 177.853 239.071 182.76 233.352C186.085 228.643 189.773 224.296 193.778 220.368C195.866 218.27 198.089 216.362 200.429 214.661C202.827 212.867 205.452 211.52 208.208 210.666C211.119 209.826 214.162 209.812 217.079 210.626C219.997 211.441 222.702 213.06 224.968 215.346C229.376 220.412 232.733 226.58 234.784 233.381C236.912 240.223 239.685 246.769 243.054 252.9C244.753 255.988 246.994 258.623 249.631 260.633C250.926 261.587 252.417 262.119 253.95 262.174C255.447 262.089 256.859 261.344 257.901 260.091C260.031 257.25 261.65 253.941 262.661 250.36C263.815 246.764 264.747 242.998 265.63 239.202C267.348 231.612 268.723 223.793 270.293 215.917C271.25 211.18 272.232 206.471 273.41 201.82C274.502 197.146 276.076 192.643 278.097 188.408C279.132 186.2 280.668 184.364 282.538 183.1C283.531 182.511 284.641 182.245 285.753 182.33L287.373 182.501C287.888 182.501 288.403 182.872 288.919 183.043C290.917 183.99 292.626 185.61 293.827 187.695C294.947 189.673 295.862 191.8 296.551 194.03C297.974 198.367 299.004 202.762 300.526 206.842C302.047 210.923 303.912 214.975 307.274 216.63C310.714 218.067 314.453 218.227 317.974 217.087C321.577 216.078 325.233 215.344 328.918 214.889C330.825 214.768 332.727 215.22 334.44 216.202C336.075 217.364 337.348 219.104 338.072 221.167C339.365 224.981 340.35 228.927 341.016 232.953C341.697 236.769 342.725 240.49 344.084 244.053C344.689 245.744 345.597 247.265 346.748 248.515C347.899 249.765 349.267 250.715 350.759 251.302C353.735 252.183 356.879 251.881 359.691 250.445C362.383 248.936 364.774 246.787 366.709 244.139C370.709 239.031 373.826 233.238 378.145 229.072C380.23 226.997 382.649 225.425 385.261 224.449C387.783 223.583 390.456 223.495 393.016 224.192C397.585 225.808 401.585 229.089 404.427 233.552C406.959 237.275 409.155 241.291 410.979 245.537C412.449 249.076 414.499 252.246 417.016 254.869C420.579 258.441 424.857 260.914 429.457 262.06C430.647 262.373 431.851 262.601 433.065 262.745L434.095 262.802Z" fill="#989898"/>
<path d="M145.057 155.418C145.057 155.779 126.046 156.043 102.614 156.043C79.1826 156.043 60.1719 155.779 60.1719 155.418C60.1719 155.057 79.1826 154.792 102.614 154.792C126.046 154.792 145.057 155.081 145.057 155.418Z" fill="#585858"/>
</svg>
