<svg width="467" height="479" viewBox="0 0 467 479" fill="none" xmlns="http://www.w3.org/2000/svg">
<rect x="70.5" y="39.5" width="396" height="439" rx="29.5" stroke="#D9D9D9"/>
<rect width="184" height="185" rx="13" fill="#F6F5F1"/>
<path d="M97.308 107L148 107.697C147.615 134.786 124.897 157 97.308 157H97L97.308 107Z" fill="#585858"/>
<path d="M88.5575 100.5L87.8481 150C60.4125 149.617 38 127.396 38 100.5C38 73.6045 60.7959 51 88.5 51C116.204 51 139 73.3555 139 100.5H88.5575Z" fill="#989898"/>
<path d="M23 24C25.7614 24 28 21.7614 28 19C28 16.2386 25.7614 14 23 14C20.2386 14 18 16.2386 18 19C18 21.7614 20.2386 24 23 24Z" fill="#3EBA59"/>
<path d="M40 24C42.7614 24 45 21.7614 45 19C45 16.2386 42.7614 14 40 14C37.2386 14 35 16.2386 35 19C35 21.7614 37.2386 24 40 24Z" fill="#FFB355"/>
<path d="M63 19C63 19.9889 62.7068 20.9556 62.1573 21.7779C61.6079 22.6001 60.827 23.2409 59.9134 23.6194C58.9998 23.9978 57.9945 24.0969 57.0246 23.9039C56.0546 23.711 55.1637 23.2348 54.4645 22.5355C53.7652 21.8363 53.289 20.9454 53.0961 19.9755C52.9032 19.0056 53.0022 18.0002 53.3806 17.0866C53.759 16.1729 54.3999 15.3921 55.2222 14.8427C56.0444 14.2933 57.0111 14 58 14C59.3261 14 60.5979 14.5268 61.5355 15.4645C62.4732 16.4022 63 17.6739 63 19Z" fill="#FF6868"/>
<path d="M406.436 228H311.564C295.789 228 283 240.863 283 256.73V266.27C283 282.137 295.789 295 311.564 295H406.436C422.211 295 435 282.137 435 266.27V256.73C435 240.863 422.211 228 406.436 228Z" fill="white"/>
<path d="M106.004 302.717C105.863 290.467 109.354 278.449 116.036 268.181C122.719 257.913 132.293 249.855 143.551 245.024C154.809 240.193 167.246 238.806 179.292 241.037C191.338 243.268 202.453 249.018 211.234 257.561C220.015 266.104 226.068 277.057 228.63 289.038C231.191 301.018 230.146 313.488 225.626 324.875C221.107 336.262 213.315 346.055 203.235 353.017C193.155 359.98 181.238 363.8 168.989 363.995C152.517 364.201 136.636 357.865 124.828 346.378C113.021 334.89 106.251 319.189 106.004 302.717ZM197.627 301.178C197.505 295.327 195.653 289.643 192.306 284.842C188.958 280.042 184.264 276.34 178.816 274.203C173.368 272.067 167.409 271.591 161.69 272.836C155.972 274.081 150.75 276.991 146.683 281.199C142.616 285.408 139.886 290.726 138.837 296.483C137.788 302.241 138.467 308.18 140.788 313.553C143.11 318.925 146.97 323.49 151.881 326.672C156.793 329.854 162.537 331.51 168.389 331.432C176.267 331.299 183.771 328.044 189.253 322.384C194.734 316.723 197.746 309.119 197.627 301.24V301.178Z" fill="#F5F5F5"/>
<path d="M106.009 302.501C105.725 285.97 111.986 270.001 123.42 258.097C134.854 246.193 150.526 239.325 166.999 239L167.523 271.615C159.625 271.742 152.1 275.012 146.605 280.706C141.11 286.4 138.094 294.051 138.22 301.976C138.347 309.901 141.606 317.452 147.28 322.966C152.954 328.48 160.579 331.506 168.477 331.38L169 363.995C152.525 364.205 136.64 357.849 124.831 346.32C113.022 334.791 106.253 319.032 106.009 302.501Z" fill="#585858"/>
<path d="M197.987 300.528C198.004 300.686 198.004 300.846 197.987 301.004V302.416C197.996 303.181 197.945 303.945 197.832 304.702C197.734 305.736 197.558 306.762 197.306 307.77C196.698 310.588 195.654 313.295 194.209 315.795C192.33 319.14 189.804 322.086 186.776 324.464C182.843 327.609 178.166 329.71 173.186 330.566C168.207 331.422 163.089 331.007 158.316 329.358C156.955 328.89 155.626 328.337 154.337 327.701C153.036 327.013 151.785 326.239 150.589 325.384C149.374 324.512 148.215 323.564 147.121 322.546C146.041 321.465 145.033 320.317 144.101 319.109C142.18 316.628 140.674 313.856 139.642 310.9C138.622 307.843 138.069 304.653 138.001 301.434C137.98 298.215 138.455 295.013 139.41 291.936C140.338 288.948 141.75 286.129 143.59 283.59C145.32 281.105 147.443 278.914 149.877 277.099C151.024 276.231 152.229 275.441 153.485 274.737C154.747 274.053 156.056 273.458 157.403 272.957C163.965 270.47 171.202 270.35 177.845 272.616C184.489 274.882 190.117 279.391 193.744 285.354C195.269 287.806 196.402 290.476 197.104 293.271C197.385 294.278 197.592 295.303 197.724 296.34C197.864 297.089 197.942 297.849 197.956 298.611C197.956 299.209 197.956 299.669 197.956 300.022C197.976 300.185 197.976 300.35 197.956 300.513C197.909 300.359 197.882 300.199 197.879 300.037C197.879 299.669 197.801 299.209 197.739 298.626C197.7 297.868 197.602 297.114 197.445 296.37C197.285 295.333 197.052 294.307 196.748 293.302C196.009 290.555 194.85 287.937 193.311 285.538C191.28 282.339 188.653 279.553 185.569 277.33C181.598 274.414 176.947 272.541 172.049 271.887C167.151 271.232 162.166 271.817 157.557 273.586C154.895 274.583 152.404 275.98 150.171 277.728C147.844 279.516 145.826 281.667 144.194 284.096C142.408 286.574 141.034 289.319 140.122 292.228C139.204 295.211 138.744 298.315 138.759 301.434C138.874 307.645 140.972 313.661 144.752 318.618C146.506 320.991 148.64 323.064 151.069 324.755C152.226 325.593 153.442 326.347 154.708 327.011C155.96 327.638 157.254 328.182 158.579 328.637C163.24 330.262 168.239 330.692 173.113 329.887C177.986 329.083 182.575 327.069 186.451 324.034C189.439 321.708 191.951 318.839 193.853 315.58C195.309 313.13 196.384 310.476 197.042 307.709C197.321 306.703 197.518 305.677 197.631 304.64C197.771 303.891 197.849 303.132 197.863 302.37C197.863 301.787 197.94 301.326 197.956 300.958C197.952 300.814 197.963 300.67 197.987 300.528Z" fill="#263238"/>
<path d="M106.031 302.545C106.031 302.545 106.031 302.883 106.139 303.544C106.247 304.205 106.263 305.219 106.371 306.479C106.371 307.14 106.479 307.862 106.541 308.646C106.603 309.43 106.819 310.306 106.974 311.243C107.128 312.18 107.314 313.179 107.499 314.317C107.73 315.452 108.019 316.576 108.365 317.682C109.906 323.461 112.319 328.974 115.522 334.033C119.698 340.776 125.14 346.656 131.552 351.352L134.257 353.304C135.2 353.919 136.205 354.457 137.194 355.056C138.183 355.655 139.173 356.27 140.286 356.762L143.532 358.299L145.17 359.052L146.902 359.651L150.411 360.865C151.601 361.249 152.853 361.48 154.09 361.787C155.324 362.131 156.578 362.398 157.846 362.586C160.447 363.028 163.076 363.289 165.714 363.37C167.043 363.37 168.404 363.508 169.764 363.462L173.86 363.186C174.556 363.186 175.251 363.186 175.932 363.016L177.987 362.663C179.363 362.402 180.77 362.233 182.161 361.91C187.821 360.533 193.277 358.43 198.392 355.655C199.69 354.918 200.927 354.119 202.21 353.289C203.502 352.495 204.737 351.612 205.904 350.646C208.346 348.756 210.655 346.702 212.814 344.499L215.906 340.995L216.679 340.119L217.374 339.166L218.75 337.245L220.141 335.324L221.362 333.265L222.568 331.206L223.171 330.176L223.681 329.085L225.706 324.705L227.252 320.095C231.296 307.401 231.079 293.744 226.633 281.184L224.871 276.574C224.16 275.129 223.434 273.685 222.707 272.255L222.166 271.18L221.532 270.165L220.249 268.137L218.982 266.124L217.529 264.249L216.076 262.374L215.365 261.452L214.545 260.591C213.479 259.439 212.412 258.317 211.346 257.18C209.119 255.068 206.748 253.112 204.25 251.325C203.053 250.392 201.787 249.55 200.463 248.805C199.165 248.052 197.897 247.268 196.583 246.545C193.946 245.228 191.225 244.083 188.437 243.119C185.725 242.172 182.951 241.407 180.136 240.829C178.745 240.552 177.338 240.414 175.962 240.199L173.876 239.922C173.195 239.83 172.5 239.922 171.804 239.814L167.692 239.676C166.332 239.676 164.987 239.83 163.658 239.891C161.024 240.058 158.405 240.407 155.821 240.936C154.556 241.16 153.307 241.463 152.08 241.843C150.859 242.196 149.622 242.473 148.447 242.888L144.985 244.225L143.269 244.87L141.646 245.685L138.446 247.222C137.395 247.729 136.452 248.436 135.463 249.02C134.473 249.604 133.5 250.218 132.572 250.864L129.929 252.892C123.673 257.793 118.425 263.846 114.471 270.719C111.434 275.881 109.203 281.472 107.855 287.3C107.54 288.418 107.288 289.552 107.098 290.697C106.943 291.772 106.788 292.771 106.665 293.77C106.541 294.769 106.371 295.568 106.309 296.352C106.247 297.136 106.309 297.889 106.216 298.534C106.216 299.81 106.108 300.778 106.077 301.469C106.046 302.161 106 302.484 106 302.484C106 302.484 106 302.145 106 301.469C106 300.793 106 299.794 106 298.519C106 297.873 106 297.136 106 296.336C106 295.537 106.201 294.677 106.309 293.739C106.417 292.802 106.572 291.772 106.711 290.666C106.89 289.511 107.132 288.367 107.438 287.239C108.751 281.37 110.95 275.733 113.961 270.519C117.9 263.569 123.148 257.439 129.419 252.462L132.077 250.403C133.02 249.742 134.01 249.158 134.984 248.528C135.957 247.898 136.931 247.222 137.998 246.699L141.229 245.162L142.774 244.333L144.506 243.672L148.015 242.319C149.189 241.889 150.441 241.613 151.678 241.244C152.921 240.859 154.186 240.546 155.465 240.306C158.075 239.77 160.72 239.416 163.38 239.246C164.725 239.246 166.085 239.015 167.461 239L171.619 239.138C172.314 239.138 173.01 239.138 173.721 239.246L175.808 239.523C177.215 239.738 178.637 239.876 180.043 240.137C182.894 240.728 185.703 241.503 188.452 242.458C191.357 243.411 194.188 244.572 196.923 245.931C198.253 246.638 199.551 247.468 200.865 248.205C202.201 248.961 203.482 249.808 204.699 250.741C207.229 252.558 209.636 254.539 211.902 256.673L215.133 260.115L215.952 260.991L216.694 261.928L218.147 263.819L219.693 265.724L220.976 267.753L222.274 269.812L222.924 270.842L223.465 271.917L225.675 276.297C226.262 277.834 226.85 279.371 227.453 280.907C231.961 293.626 232.178 307.458 228.071 320.31L226.525 324.92C225.845 326.457 225.149 327.886 224.469 329.361L223.959 330.468L223.341 331.513L222.12 333.603L220.883 335.678L219.476 337.614L218.07 339.55L217.374 340.518L216.586 341.41C215.535 342.608 214.499 343.792 213.494 344.96C211.301 347.162 208.962 349.216 206.492 351.107C205.307 352.077 204.058 352.965 202.751 353.765C201.452 354.564 200.2 355.41 198.886 356.163C196.27 357.586 193.559 358.829 190.771 359.881C188.054 360.923 185.27 361.785 182.439 362.463C181.048 362.786 179.626 362.955 178.235 363.216L176.148 363.57C175.452 363.677 174.741 363.677 174.046 363.739L169.903 364C168.527 364 167.167 364 165.807 363.908C163.143 363.81 160.489 363.538 157.861 363.093C156.579 362.894 155.309 362.623 154.059 362.279C152.807 361.956 151.554 361.726 150.349 361.326L146.809 360.097L145.062 359.482L143.393 358.714L140.131 357.177C139.049 356.685 138.075 356.009 137.039 355.44C136.004 354.872 135.03 354.288 134.072 353.673L131.351 351.691C124.863 346.973 119.356 341.049 115.136 334.248C111.945 329.138 109.563 323.572 108.071 317.744C107.733 316.603 107.465 315.443 107.268 314.27L106.757 311.197C106.618 310.26 106.448 309.399 106.371 308.6C106.294 307.801 106.278 307.063 106.247 306.418C106.247 305.142 106.124 304.159 106.077 303.467C106.031 302.776 106.031 302.545 106.031 302.545Z" fill="#808080" fill-opacity="0.14"/>
<path d="M162 234.01C202.263 233.365 234.35 264.325 235 304.401L196.905 305C196.595 285.844 181.899 273.78 162.65 274.087L162 234.01Z" fill="#989898"/>
<path d="M162.001 234.003C162.001 234.003 162.001 234.266 162.001 234.762C162.001 235.257 162.001 235.985 162.001 236.883C162.001 238.787 162.109 241.526 162.201 244.994C162.355 252.006 162.556 262.022 162.833 274.406L162.525 274.112C166.368 274.052 170.201 274.526 173.916 275.52C178.004 276.599 181.842 278.471 185.214 281.031C188.838 283.819 191.771 287.411 193.784 291.526C195.873 295.918 196.978 300.715 197.021 305.582L196.62 305.195L225.906 304.715L234.461 304.576L234.075 304.978C233.868 297.323 232.565 289.738 230.206 282.455L228.48 277.347C227.756 275.69 226.939 274.096 226.153 272.502C225.397 270.896 224.531 269.344 223.563 267.858C222.713 266.374 221.776 264.943 220.758 263.57C219.74 262.223 218.723 260.907 217.675 259.591C216.627 258.276 215.471 257.192 214.407 256L212.789 254.266L211.047 252.718L207.625 249.622C203.283 246.193 198.567 243.269 193.568 240.907L190.208 239.359C189.083 238.91 187.973 238.554 186.894 238.167L183.811 237.084C182.794 236.759 181.777 236.557 180.728 236.31L177.908 235.629L176.582 235.304L175.272 235.118L170.648 234.452C169.421 234.282 168.186 234.184 166.949 234.158L164.22 234.019L162.602 234.003H162.001H164.22H166.979C168.242 233.983 169.504 234.056 170.756 234.22L175.38 234.808L176.69 234.994L178.031 235.288L180.883 235.954C181.854 236.201 182.886 236.372 183.965 236.697L187.048 237.765C188.127 238.152 189.252 238.492 190.377 238.926L193.784 240.474C198.845 242.821 203.623 245.74 208.026 249.174C209.151 250.18 210.307 251.186 211.479 252.269L213.251 253.817L214.885 255.567C215.964 256.759 217.12 257.92 218.199 259.189L221.282 263.198C222.319 264.578 223.271 266.021 224.133 267.517C225.116 269.001 225.991 270.552 226.754 272.161C227.524 273.709 228.388 275.365 229.112 277.053L231.07 282.238C233.465 289.594 234.789 297.258 235 304.994V305.396H234.599L226.045 305.536L196.759 306H196.358V305.613C196.346 300.864 195.293 296.177 193.275 291.882C191.329 287.86 188.48 284.347 184.952 281.619C181.66 279.101 177.911 277.251 173.916 276.17C170.263 275.181 166.493 274.697 162.71 274.731H162.402V274.437C162.263 262.053 162.155 251.882 162.093 244.808C162.093 241.356 162.093 238.616 162.093 236.774V234.7C161.985 234.235 162.001 234.003 162.001 234.003Z" fill="#263238"/>
<path d="M417.603 251H304.412C303.78 251 303.174 250.741 302.723 250.278C302.272 249.815 302.012 249.185 302 248.524C302 247.855 302.254 247.213 302.707 246.739C303.159 246.266 303.772 246 304.412 246H417.603C418.24 246.004 418.85 246.272 419.299 246.745C419.748 247.218 420 247.858 420 248.524C419.988 249.183 419.731 249.81 419.283 250.272C418.835 250.735 418.232 250.996 417.603 251Z" fill="#585858"/>
<path d="M417.588 263H304.412C303.772 263 303.159 262.737 302.706 262.27C302.254 261.803 302 261.169 302 260.508C301.998 260.179 302.059 259.854 302.179 259.549C302.3 259.245 302.477 258.969 302.701 258.736C302.925 258.502 303.192 258.317 303.485 258.191C303.779 258.065 304.094 258 304.412 258H417.588C417.906 258 418.221 258.065 418.515 258.191C418.808 258.317 419.075 258.502 419.299 258.736C419.523 258.969 419.7 259.245 419.821 259.549C419.941 259.854 420.002 260.179 420 260.508C420 261.169 419.746 261.803 419.294 262.27C418.841 262.737 418.228 263 417.588 263Z" fill="#585858"/>
<path d="M355.584 276H304.401C303.764 276 303.153 275.737 302.703 275.27C302.253 274.803 302 274.169 302 273.508C301.998 273.179 302.059 272.854 302.178 272.549C302.298 272.245 302.475 271.969 302.698 271.736C302.921 271.502 303.186 271.317 303.478 271.191C303.771 271.065 304.084 271 304.401 271H355.584C355.9 270.998 356.214 271.061 356.507 271.185C356.8 271.309 357.067 271.493 357.291 271.724C357.516 271.956 357.694 272.231 357.816 272.535C357.937 272.838 358 273.163 358 273.492C358.002 273.822 357.941 274.149 357.82 274.454C357.699 274.76 357.522 275.037 357.297 275.27C357.072 275.503 356.805 275.688 356.511 275.813C356.217 275.939 355.902 276.002 355.584 276Z" fill="#585858"/>
<path d="M406.436 310H311.564C295.789 310 283 322.863 283 338.73V348.27C283 364.137 295.789 377 311.564 377H406.436C422.211 377 435 364.137 435 348.27V338.73C435 322.863 422.211 310 406.436 310Z" fill="white"/>
<path d="M419.823 418H294.161C290.669 417.996 287.322 416.624 284.854 414.185C282.386 411.746 281 408.44 281 404.992C281 403.286 281.34 401.597 282.002 400.02C282.663 398.444 283.633 397.012 284.855 395.805C286.077 394.599 287.528 393.642 289.125 392.989C290.721 392.336 292.433 392 294.161 392H419.823C423.315 392 426.665 393.368 429.135 395.804C431.606 398.241 432.996 401.545 433 404.992C433 408.442 431.612 411.751 429.141 414.19C426.67 416.63 423.318 418 419.823 418Z" fill="white"/>
<path d="M416.588 333H303.412C302.772 333 302.159 332.737 301.707 332.268C301.254 331.799 301 331.163 301 330.5C301 329.837 301.254 329.201 301.707 328.732C302.159 328.263 302.772 328 303.412 328H416.588C416.905 328 417.218 328.065 417.511 328.19C417.804 328.316 418.069 328.5 418.293 328.732C418.517 328.964 418.695 329.24 418.816 329.543C418.938 329.847 419 330.172 419 330.5C419 330.828 418.938 331.153 418.816 331.457C418.695 331.76 418.517 332.036 418.293 332.268C418.069 332.5 417.804 332.684 417.511 332.81C417.218 332.935 416.905 333 416.588 333Z" fill="#585858"/>
<path d="M411.512 407.999H298.411C297.771 407.999 297.158 407.735 296.706 407.267C296.254 406.798 296 406.163 296 405.5C296 404.837 296.254 404.202 296.706 403.733C297.158 403.265 297.771 403.001 298.411 403.001H411.512C411.839 402.99 412.164 403.049 412.469 403.172C412.773 403.296 413.05 403.483 413.283 403.721C413.516 403.959 413.7 404.244 413.823 404.558C413.946 404.872 414.006 405.209 414 405.548C413.994 405.879 413.924 406.205 413.796 406.508C413.667 406.811 413.481 407.085 413.25 407.313C413.018 407.541 412.746 407.719 412.447 407.836C412.149 407.954 411.831 408.009 411.512 407.999Z" fill="#585858"/>
<path d="M416.588 346H303.412C302.772 346 302.159 345.737 301.707 345.268C301.254 344.799 301 344.163 301 343.5C301 342.837 301.254 342.201 301.707 341.732C302.159 341.263 302.772 341 303.412 341H416.588C416.905 341 417.218 341.065 417.511 341.19C417.804 341.316 418.069 341.5 418.293 341.732C418.517 341.964 418.695 342.24 418.816 342.543C418.938 342.847 419 343.172 419 343.5C419 343.828 418.938 344.153 418.816 344.457C418.695 344.76 418.517 345.036 418.293 345.268C418.069 345.5 417.804 345.684 417.511 345.81C417.218 345.935 416.905 346 416.588 346Z" fill="#585858"/>
<path d="M354.599 358H303.401C302.764 358 302.154 357.737 301.703 357.268C301.253 356.799 301 356.163 301 355.5C301 354.837 301.253 354.201 301.703 353.732C302.154 353.263 302.764 353 303.401 353H354.599C355.236 353 355.846 353.263 356.297 353.732C356.747 354.201 357 354.837 357 355.5C357 356.163 356.747 356.799 356.297 357.268C355.846 357.737 355.236 358 354.599 358Z" fill="#585858"/>
<path d="M274 242.424C273.306 242.537 272.603 242.587 271.9 242.575L266.181 242.696C261.352 242.696 254.668 242.817 247.309 242.817H238.709L238.985 242.711C235.229 246.374 231.994 249.491 229.679 251.686L227.027 254.153C226.724 254.478 226.378 254.763 226 255C226.24 254.626 226.529 254.286 226.859 253.986L229.434 251.292C231.642 249.007 234.815 245.814 238.525 242.106L238.632 242H247.386C254.745 242 261.429 242 266.258 242.106L271.976 242.227C272.656 242.228 273.333 242.294 274 242.424Z" fill="#263238"/>
<path d="M273 245C274.657 245 276 243.657 276 242C276 240.343 274.657 239 273 239C271.343 239 270 240.343 270 242C270 243.657 271.343 245 273 245Z" fill="#585858"/>
<path d="M273 341C274.657 341 276 339.657 276 338C276 336.343 274.657 335 273 335C271.343 335 270 336.343 270 338C270 339.657 271.343 341 273 341Z" fill="#585858"/>
<path d="M271 339.677C269.202 339.947 267.391 340.048 265.581 339.979C262.227 339.979 257.6 339.979 252.492 339.979L239.419 339.818L235.444 339.697C234.963 339.741 234.481 339.741 234 339.697C235.777 339.226 237.592 339.043 239.403 339.153C242.757 339.033 247.384 338.972 252.492 339.012C257.6 339.053 262.227 339.133 265.581 339.254C267.393 339.21 269.205 339.351 271 339.677Z" fill="#263238"/>
<path d="M137 410H126V420H137V410Z" fill="#585858"/>
<path d="M172 410H161V420H172V410Z" fill="#F6F5F1"/>
<path d="M211 410H200V420H211V410Z" fill="#989898"/>
<path d="M442 137.5C442 137.788 395.437 138 338.013 138C280.588 138 234 137.788 234 137.5C234 137.212 280.55 137 338.013 137C395.475 137 442 137.231 442 137.5Z" fill="#E0E0E0"/>
<path d="M442 119.5C442 119.769 395.437 120 338.013 120C280.588 120 234 119.769 234 119.5C234 119.231 280.55 119 338.013 119C395.475 119 442 119.212 442 119.5Z" fill="#E0E0E0"/>
<path d="M442 101.5C442 101.788 395.437 102 338.013 102C280.588 102 234 101.788 234 101.5C234 101.212 280.55 101 338.013 101C395.475 101 442 101.231 442 101.5Z" fill="#E0E0E0"/>
<path d="M442 83.5C442 83.7692 395.437 84 338.013 84C280.588 84 234 83.7692 234 83.5C234 83.2308 280.55 83 338.013 83C395.475 83 442 83.2115 442 83.5Z" fill="#E0E0E0"/>
<path d="M268 130H251V165H268V130Z" fill="#989898"/>
<path d="M330 130H313V165H330V130Z" fill="#585858"/>
<path d="M425 142H408V165H425V142Z" fill="#585858"/>
<path d="M393 113H376V165H393V113Z" fill="#F6F5F1"/>
<path d="M361 93H344V165H361V93Z" fill="#989898"/>
<path d="M298 113H281V165H298V113Z" fill="#F6F5F1"/>
<path d="M440 164.797H439.215H436.935H428.17L395.91 164.898L289.516 165H233.38H233V164.695C233 136.933 233.101 113.263 233.127 96.5166C233.127 88.169 233.19 81.5494 233.215 76.9881C233.215 74.7392 233.215 72.9985 233.215 71.7915C233.215 71.2197 233.215 70.7877 233.215 70.4574C233.205 70.3051 233.205 70.1523 233.215 70C233.215 70 233.215 70.1652 233.215 70.4574V71.7915C233.215 72.9985 233.215 74.7392 233.215 76.9881C233.215 81.5494 233.215 88.169 233.304 96.5166C233.304 113.263 233.38 136.933 233.431 164.695L233.127 164.377H289.49L395.884 164.466L428.145 164.568L436.91 164.632H439.189L440 164.797Z" fill="#263238"/>
<path d="M278 182H270V190H278V182Z" fill="#989898"/>
<path d="M324 182H316V190H324V182Z" fill="#E0E0E0"/>
<path d="M375 182H367V190H375V182Z" fill="#455A64"/>
<path d="M303 186.497C299.511 186.947 296.004 187.095 292.5 186.941C288.997 187.095 285.489 186.947 282 186.497C285.49 186.058 288.997 185.909 292.5 186.053C296.004 185.909 299.51 186.058 303 186.497Z" fill="#263238"/>
<path d="M349 186.497C345.511 186.947 342.004 187.095 338.5 186.941C334.997 187.095 331.489 186.947 328 186.497C331.49 186.058 334.997 185.909 338.5 186.053C342.004 185.909 345.51 186.058 349 186.497Z" fill="#263238"/>
<path d="M398 186.5C391.007 187.167 383.993 187.167 377 186.5C383.993 185.833 391.007 185.833 398 186.5Z" fill="#263238"/>
</svg>
